<svg width="18" height="18" viewBox="0 0 18 18" fill="none" xmlns="http://www.w3.org/2000/svg">
<g clip-path="url(#clip0_4042_46)">
<path d="M7.91549 4.68001L5.37824 1.75126C5.08574 1.41376 4.54949 1.41526 4.20974 1.75576L2.12324 3.84601C1.50224 4.46776 1.32449 5.39101 1.68374 6.13126C3.82961 10.5752 7.41353 14.1642 11.8545 16.3163C12.594 16.6755 13.5165 16.4978 14.1375 15.876L16.2435 13.7663C16.5847 13.425 16.5855 12.8858 16.245 12.5933L13.305 10.0695C12.9975 9.80551 12.5197 9.84001 12.2115 10.149L11.1885 11.1735C11.1363 11.2286 11.0673 11.265 10.9923 11.2769C10.9173 11.2888 10.8405 11.2757 10.7737 11.2395C9.10164 10.2765 7.71457 8.88761 6.75374 7.21426C6.71738 7.14742 6.70414 7.07043 6.71608 6.99528C6.72802 6.92014 6.76446 6.85104 6.81974 6.79876L7.83974 5.77801C8.14874 5.46751 8.18249 4.98826 7.91549 4.68001Z" stroke="black" stroke-width="2" stroke-linecap="round" stroke-linejoin="round"/>
</g>
<defs>
<clipPath id="clip0_4042_46">
<rect width="18" height="18" fill="white"/>
</clipPath>
</defs>
</svg>
