<svg width="18" height="18" viewBox="0 0 18 18" fill="none" xmlns="http://www.w3.org/2000/svg">
<path d="M3.75 15.75C3.3375 15.75 2.9845 15.6033 2.691 15.3097C2.3975 15.0162 2.2505 14.663 2.25 14.25V3.75C2.25 3.3375 2.397 2.9845 2.691 2.691C2.985 2.3975 3.338 2.2505 3.75 2.25H6.9C7.0625 1.8 7.3345 1.4375 7.716 1.1625C8.0975 0.8875 8.5255 0.75 9 0.75C9.4745 0.75 9.90275 0.8875 10.2847 1.1625C10.6667 1.4375 10.9385 1.8 11.1 2.25H14.25C14.6625 2.25 15.0157 2.397 15.3097 2.691C15.6038 2.985 15.7505 3.338 15.75 3.75V14.25C15.75 14.6625 15.6033 15.0157 15.3097 15.3097C15.0162 15.6038 14.663 15.7505 14.25 15.75H3.75ZM3.75 14.25H14.25V3.75H3.75V14.25ZM6 12.75H9.75C9.9625 12.75 10.1408 12.678 10.2847 12.534C10.4288 12.39 10.5005 12.212 10.5 12C10.4995 11.788 10.4275 11.61 10.284 11.466C10.1405 11.322 9.9625 11.25 9.75 11.25H6C5.7875 11.25 5.6095 11.322 5.466 11.466C5.3225 11.61 5.2505 11.788 5.25 12C5.2495 12.212 5.3215 12.3902 5.466 12.5347C5.6105 12.6792 5.7885 12.751 6 12.75ZM6 9.75H12C12.2125 9.75 12.3907 9.678 12.5347 9.534C12.6787 9.39 12.7505 9.212 12.75 9C12.7495 8.788 12.6775 8.61 12.534 8.466C12.3905 8.322 12.2125 8.25 12 8.25H6C5.7875 8.25 5.6095 8.322 5.466 8.466C5.3225 8.61 5.2505 8.788 5.25 9C5.2495 9.212 5.3215 9.39025 5.466 9.53475C5.6105 9.67925 5.7885 9.751 6 9.75ZM6 6.75H12C12.2125 6.75 12.3907 6.678 12.5347 6.534C12.6787 6.39 12.7505 6.212 12.75 6C12.7495 5.788 12.6775 5.61 12.534 5.466C12.3905 5.322 12.2125 5.25 12 5.25H6C5.7875 5.25 5.6095 5.322 5.466 5.466C5.3225 5.61 5.2505 5.788 5.25 6C5.2495 6.212 5.3215 6.39025 5.466 6.53475C5.6105 6.67925 5.7885 6.751 6 6.75ZM9 3.1875C9.1625 3.1875 9.297 3.13425 9.4035 3.02775C9.51 2.92125 9.563 2.787 9.5625 2.625C9.562 2.463 9.50875 2.32875 9.40275 2.22225C9.29675 2.11575 9.1625 2.0625 9 2.0625C8.8375 2.0625 8.70325 2.11575 8.59725 2.22225C8.49125 2.32875 8.438 2.463 8.4375 2.625C8.437 2.787 8.49025 2.9215 8.59725 3.0285C8.70425 3.1355 8.8385 3.1885 9 3.1875Z" fill="black"/>
</svg>
