<svg width="18" height="17" viewBox="0 0 18 17" fill="none" xmlns="http://www.w3.org/2000/svg">
<g filter="url(#filter0_d_4042_61)">
<path d="M7.5 3.95031e-07C6.56143 0.000502058 5.63606 0.221187 4.79828 0.644317C3.96049 1.06745 3.23366 1.68122 2.67619 2.43631C2.11873 3.19139 1.74618 4.06673 1.58849 4.99196C1.43081 5.9172 1.49238 6.86652 1.76826 7.76363C2.04415 8.66074 2.52665 9.48062 3.17698 10.1574C3.82731 10.8341 4.62734 11.3489 5.51277 11.6602C6.39819 11.9716 7.34431 12.0709 8.27509 11.9501C9.20586 11.8294 10.0953 11.492 10.872 10.965L14.58 14.67C14.683 14.7805 14.8072 14.8692 14.9452 14.9307C15.0832 14.9922 15.2322 15.0252 15.3832 15.0279C15.5343 15.0306 15.6843 15.0028 15.8244 14.9462C15.9645 14.8896 16.0917 14.8054 16.1986 14.6986C16.3054 14.5917 16.3896 14.4645 16.4462 14.3244C16.5028 14.1843 16.5306 14.0343 16.5279 13.8832C16.5252 13.7322 16.4922 13.5832 16.4307 13.4452C16.3692 13.3072 16.2805 13.183 16.17 13.08L12.465 9.372C13.078 8.46987 13.4334 7.41773 13.4932 6.32871C13.5529 5.23968 13.3147 4.15496 12.8041 3.19119C12.2935 2.22742 11.5299 1.42105 10.5954 0.858775C9.66081 0.296504 8.59067 -0.000395312 7.5 3.95031e-07ZM3.75 6C3.75 5.00544 4.14509 4.05161 4.84835 3.34835C5.55161 2.64509 6.50544 2.25 7.5 2.25C8.49456 2.25 9.44839 2.64509 10.1517 3.34835C10.8549 4.05161 11.25 5.00544 11.25 6C11.25 6.99456 10.8549 7.94839 10.1517 8.65165C9.44839 9.35491 8.49456 9.75 7.5 9.75C6.50544 9.75 5.55161 9.35491 4.84835 8.65165C4.14509 7.94839 3.75 6.99456 3.75 6Z" fill="black"/>
<path d="M7.50028 0.5C8.49989 0.499655 9.48062 0.771845 10.3372 1.28711C11.1938 1.80248 11.8946 2.54145 12.3626 3.4248C12.8306 4.30826 13.0482 5.30348 12.9934 6.30176C12.9386 7.29986 12.6128 8.264 12.0511 9.09082L11.8186 9.43262L12.1116 9.72559L15.8167 13.4336L15.8294 13.4463C15.8906 13.5034 15.9398 13.572 15.9739 13.6484C16.008 13.725 16.0261 13.8078 16.0276 13.8916C16.0291 13.9754 16.014 14.059 15.9827 14.1367C15.9513 14.2145 15.9043 14.2854 15.845 14.3447C15.7857 14.4041 15.7148 14.451 15.637 14.4824C15.5592 14.5138 15.4758 14.5298 15.3919 14.5283C15.308 14.5268 15.2253 14.5078 15.1487 14.4736C15.0721 14.4395 15.0028 14.3905 14.9456 14.3291L14.9397 14.3223L14.9339 14.3164L11.2259 10.6113L10.9329 10.3193L10.5911 10.5508C9.87928 11.0338 9.06426 11.3434 8.21122 11.4541C7.35811 11.5648 6.49054 11.4738 5.67899 11.1885C4.86735 10.9031 4.13353 10.4309 3.53739 9.81055C2.94137 9.19024 2.49923 8.43845 2.24637 7.61621C1.99359 6.79403 1.93685 5.92411 2.08133 5.07617C2.22587 4.22808 2.56743 3.42554 3.0784 2.7334C3.5894 2.04125 4.25577 1.47869 5.02372 1.09082C5.79169 0.702951 6.63992 0.50046 7.50028 0.5ZM7.50028 1.75C6.37311 1.75 5.29145 2.19809 4.49442 2.99512C3.69761 3.79211 3.25028 4.873 3.25028 6C3.25028 7.127 3.69761 8.20789 4.49442 9.00488C5.29145 9.80191 6.37311 10.25 7.50028 10.25C8.62735 10.2499 9.7082 9.80185 10.5052 9.00488C11.3021 8.20787 11.7503 7.1271 11.7503 6C11.7503 4.8729 11.3021 3.79213 10.5052 2.99512C9.7082 2.19815 8.62735 1.75007 7.50028 1.75Z" stroke="black"/>
</g>
<defs>
<filter id="filter0_d_4042_61" x="-2.49679" y="0" width="23.0249" height="23.0281" filterUnits="userSpaceOnUse" color-interpolation-filters="sRGB">
<feFlood flood-opacity="0" result="BackgroundImageFix"/>
<feColorMatrix in="SourceAlpha" type="matrix" values="0 0 0 0 0 0 0 0 0 0 0 0 0 0 0 0 0 0 127 0" result="hardAlpha"/>
<feOffset dy="4"/>
<feGaussianBlur stdDeviation="2"/>
<feComposite in2="hardAlpha" operator="out"/>
<feColorMatrix type="matrix" values="0 0 0 0 0 0 0 0 0 0 0 0 0 0 0 0 0 0 0.25 0"/>
<feBlend mode="normal" in2="BackgroundImageFix" result="effect1_dropShadow_4042_61"/>
<feBlend mode="normal" in="SourceGraphic" in2="effect1_dropShadow_4042_61" result="shape"/>
</filter>
</defs>
</svg>
