<svg width="68" height="69" viewBox="0 0 68 69" fill="none" xmlns="http://www.w3.org/2000/svg">
<ellipse cx="33.9132" cy="34.4132" rx="33.9132" ry="34.4132" fill="#2277AA"/>
<path d="M27.0143 13.345C23.8649 14.7094 21.0858 16.8248 18.9146 19.512C16.7435 22.1993 15.2436 25.3791 14.5426 28.7805C14.4447 29.2555 14.3644 29.7332 14.2984 30.2122H23.5914V33.7971H14.1021C14.146 35.4061 14.368 37.0093 14.7652 38.5774H20.6471V42.1633H16.0143C16.9756 44.3008 18.276 46.2724 19.8727 47.9944C22.2031 50.5077 25.0943 52.4157 28.3014 53.5618V48.7356H31.8346V54.4866C33.1952 54.7191 34.5757 54.8175 35.9566 54.7795V45.7483H39.4898V54.3782C42.4949 53.7759 45.3414 52.5231 47.8307 50.6975C50.606 48.6619 52.8565 45.9763 54.3902 42.8694L59.0592 45.2434C57.149 49.1126 54.3466 52.4573 50.8902 54.9924C47.4336 57.5276 43.4237 59.1783 39.2037 59.8049C34.9837 60.4314 30.6765 60.015 26.649 58.5911C22.6216 57.167 18.9915 54.7772 16.0689 51.6252C13.1465 48.4732 11.0166 44.6515 9.86093 40.4856C8.70533 36.3196 8.55814 31.9318 9.43124 27.6956C10.3044 23.4593 12.1725 19.4995 14.8766 16.1526C17.5806 12.8058 21.0411 10.1703 24.9635 8.47095L27.0143 13.345Z" fill="white"/>
<g clip-path="url(#clip0_4036_83)">
<path d="M30.2462 8.55163L28.6255 17.619C34.0583 18.7459 39.0476 21.4246 42.9883 25.3306C46.948 29.2172 49.695 34.1692 50.8964 39.586L59.9407 37.8409C58.3393 30.6184 54.6759 24.016 49.3953 18.8349C43.9018 13.4164 37.2128 9.9895 30.2462 8.55163ZM23.7671 44.8176L25.6186 34.4546C27.6085 34.8648 29.5194 35.8453 31.0895 37.3939C32.6596 38.9426 33.6662 40.8399 34.1038 42.824L23.7671 44.8176Z" fill="white"/>
<path d="M47.0231 40.3315L37.9788 42.0766C37.3494 39.2392 35.91 36.6455 33.8353 34.6101C31.7717 32.5636 29.1584 31.16 26.3126 30.5696L27.9315 21.504C32.5881 22.4702 36.8646 24.7665 40.2424 28.1144C43.7742 31.598 46.0376 35.8664 47.0231 40.3315Z" fill="white"/>
</g>
<defs>
<clipPath id="clip0_4036_83">
<rect width="41.7088" height="41.7088" fill="white" transform="translate(36.3786 2.33434) rotate(44.6064)"/>
</clipPath>
</defs>
</svg>
